<svg width="93" height="99" viewBox="0 0 93 99" fill="none" xmlns="http://www.w3.org/2000/svg">
<g filter="url(#filter0_d_148_5)">
<rect x="4" width="85" height="91" rx="20" fill="#BE26A4"/>
</g>
<path d="M41.1178 39.6623C41.1178 39.6623 45.8237 27 46.496 27C47.1683 27 52.5465 39.6623 52.5465 39.6623C52.5465 39.6623 65.6559 41.3734 65.992 41.7157C66.3282 42.0579 55.9079 51.298 55.9079 51.298C55.9079 51.298 58.9331 64.6447 58.597 64.9869C58.2609 65.3292 46.496 58.8269 46.496 58.8269C46.496 58.8269 34.7312 65.3292 34.0589 64.9869C33.3866 64.6447 36.748 51.298 36.748 51.298C36.748 51.298 27 42.4001 27 41.7157C27 41.0312 41.1178 39.6623 41.1178 39.6623Z" fill="white"/>
<defs>
<filter id="filter0_d_148_5" x="0" y="0" width="93" height="99" filterUnits="userSpaceOnUse" color-interpolation-filters="sRGB">
<feFlood flood-opacity="0" result="BackgroundImageFix"/>
<feColorMatrix in="SourceAlpha" type="matrix" values="0 0 0 0 0 0 0 0 0 0 0 0 0 0 0 0 0 0 127 0" result="hardAlpha"/>
<feOffset dy="4"/>
<feGaussianBlur stdDeviation="2"/>
<feComposite in2="hardAlpha" operator="out"/>
<feColorMatrix type="matrix" values="0 0 0 0 0 0 0 0 0 0 0 0 0 0 0 0 0 0 0.25 0"/>
<feBlend mode="normal" in2="BackgroundImageFix" result="effect1_dropShadow_148_5"/>
<feBlend mode="normal" in="SourceGraphic" in2="effect1_dropShadow_148_5" result="shape"/>
</filter>
</defs>
</svg>
