<svg width="24" height="21" viewBox="0 0 24 21" fill="none" xmlns="http://www.w3.org/2000/svg">
<path d="M1.39986 9.39536L10.8068 1.16461C11.5669 0.499566 12.7035 0.505545 13.4565 1.17855L22.7071 9.44594C23.5108 10.1642 23.0027 11.4952 21.9248 11.4952C21.2765 11.4952 20.7509 12.0208 20.7509 12.6691V19C20.7509 20.1046 19.8555 21 18.7509 21H16.4576C15.353 21 14.4576 20.1046 14.4576 19V16.6431C14.4576 15.5386 13.5622 14.6431 12.4576 14.6431H11.4965C10.3919 14.6431 9.49647 15.5386 9.49647 16.6431V19C9.49647 20.1046 8.60104 21 7.49647 21H5.38693C4.28236 21 3.38693 20.1046 3.38693 19V12.6933C3.38693 12.0316 2.85051 11.4952 2.18881 11.4952C1.0825 11.4952 0.567267 10.1239 1.39986 9.39536Z" fill="#460175"/>
</svg>
