<svg width="64" height="34" viewBox="0 0 64 34" fill="none" xmlns="http://www.w3.org/2000/svg">
<g clip-path="url(#clip0_59_54)">
<path d="M64 0.127258H0.000976562V33.8744H64V0.127258Z" fill="white"/>
<path d="M63.9468 0.000305176H0.00146484V2.66979H63.9468V0.000305176Z" fill="#B22234"/>
<path d="M63.9468 5.22205H0.00146484V7.89153H63.9468V5.22205Z" fill="#B22234"/>
<path d="M63.9468 10.4438H0.00146484V13.1133H63.9468V10.4438Z" fill="#B22234"/>
<path d="M63.9468 15.6656H0.00146484V18.3351H63.9468V15.6656Z" fill="#B22234"/>
<path d="M63.9468 20.887H0.00146484V23.5565H63.9468V20.887Z" fill="#B22234"/>
<path d="M63.9468 26.1088H0.00146484V28.7783H63.9468V26.1088Z" fill="#B22234"/>
<path d="M63.9468 31.3306H0.00146484V34.0001H63.9468V31.3306Z" fill="#B22234"/>
<path d="M25.5392 0H0V18.3357H25.5392V0Z" fill="#3C3B6E"/>
<path d="M2.17209 0.702026L2.41104 1.45067H3.18451L2.55866 1.91307L2.79794 2.66172L2.17209 2.199L1.54656 2.66172L1.78552 1.91307L1.15967 1.45067H1.93314L2.17209 0.702026Z" fill="white"/>
<path d="M4.27707 2.58337L4.51603 3.33202H5.28949L4.66397 3.79475L4.90292 4.54307L4.27707 4.08067L3.65154 4.54307L3.8905 3.79475L3.26465 3.33202H4.03812L4.27707 2.58337Z" fill="white"/>
<path d="M4.27707 6.25958L4.51603 7.00791H5.28949L4.66397 7.47063L4.90292 8.21895L4.27707 7.75655L3.65154 8.21895L3.8905 7.47063L3.26465 7.00791H4.03812L4.27707 6.25958Z" fill="white"/>
<path d="M4.27707 9.93542L4.51603 10.6837H5.28949L4.66397 11.1465L4.90292 11.8948L4.27707 11.4324L3.65154 11.8948L3.8905 11.1465L3.26465 10.6837H4.03812L4.27707 9.93542Z" fill="white"/>
<path d="M4.27707 13.6113L4.51603 14.3597H5.28949L4.66397 14.8224L4.90292 15.5707L4.27707 15.1083L3.65154 15.5707L3.8905 14.8224L3.26465 14.3597H4.03812L4.27707 13.6113Z" fill="white"/>
<path d="M8.54367 2.58337L8.78263 3.33202H9.5561L8.93057 3.79475L9.16952 4.54307L8.54367 4.08067L7.91814 4.54307L8.1571 3.79475L7.53125 3.33202H8.30472L8.54367 2.58337Z" fill="white"/>
<path d="M8.54367 6.25958L8.78263 7.00791H9.5561L8.93057 7.47063L9.16952 8.21895L8.54367 7.75655L7.91814 8.21895L8.1571 7.47063L7.53125 7.00791H8.30472L8.54367 6.25958Z" fill="white"/>
<path d="M8.54367 9.93542L8.78263 10.6837H9.5561L8.93057 11.1465L9.16952 11.8948L8.54367 11.4324L7.91814 11.8948L8.1571 11.1465L7.53125 10.6837H8.30472L8.54367 9.93542Z" fill="white"/>
<path d="M8.54367 13.6113L8.78263 14.3597H9.5561L8.93057 14.8224L9.16952 15.5707L8.54367 15.1083L7.91814 15.5707L8.1571 14.8224L7.53125 14.3597H8.30472L8.54367 13.6113Z" fill="white"/>
<path d="M12.8108 2.58337L13.0497 3.33202H13.8232L13.1977 3.79475L13.4366 4.54307L12.8108 4.08067L12.1852 4.54307L12.4242 3.79475L11.7983 3.33202H12.5718L12.8108 2.58337Z" fill="white"/>
<path d="M12.8108 6.25958L13.0497 7.00791H13.8232L13.1977 7.47063L13.4366 8.21895L12.8108 7.75655L12.1852 8.21895L12.4242 7.47063L11.7983 7.00791H12.5718L12.8108 6.25958Z" fill="white"/>
<path d="M12.8108 9.93542L13.0497 10.6837H13.8232L13.1977 11.1465L13.4366 11.8948L12.8108 11.4324L12.1852 11.8948L12.4242 11.1465L11.7983 10.6837H12.5718L12.8108 9.93542Z" fill="white"/>
<path d="M12.8108 13.6113L13.0497 14.3597H13.8232L13.1977 14.8224L13.4366 15.5707L12.8108 15.1083L12.1852 15.5707L12.4242 14.8224L11.7983 14.3597H12.5718L12.8108 13.6113Z" fill="white"/>
<path d="M17.0774 2.58337L17.3166 3.33202H18.0901L17.4643 3.79475L17.7032 4.54307L17.0774 4.08067L16.4518 4.54307L16.6908 3.79475L16.0649 3.33202H16.8384L17.0774 2.58337Z" fill="white"/>
<path d="M17.0774 6.25958L17.3166 7.00791H18.0901L17.4643 7.47063L17.7032 8.21895L17.0774 7.75655L16.4518 8.21895L16.6908 7.47063L16.0649 7.00791H16.8384L17.0774 6.25958Z" fill="white"/>
<path d="M17.0774 9.93542L17.3166 10.6837H18.0901L17.4643 11.1465L17.7032 11.8948L17.0774 11.4324L16.4518 11.8948L16.6908 11.1465L16.0649 10.6837H16.8384L17.0774 9.93542Z" fill="white"/>
<path d="M17.0774 13.6113L17.3166 14.3597H18.0901L17.4643 14.8224L17.7032 15.5707L17.0774 15.1083L16.4518 15.5707L16.6908 14.8224L16.0649 14.3597H16.8384L17.0774 13.6113Z" fill="white"/>
<path d="M21.3441 2.58337L21.5834 3.33202H22.3566L21.731 3.79475L21.97 4.54307L21.3441 4.08067L20.7186 4.54307L20.9576 3.79475L20.332 3.33202H21.1055L21.3441 2.58337Z" fill="white"/>
<path d="M21.3441 6.25958L21.5834 7.00791H22.3566L21.731 7.47063L21.97 8.21895L21.3441 7.75655L20.7186 8.21895L20.9576 7.47063L20.332 7.00791H21.1055L21.3441 6.25958Z" fill="white"/>
<path d="M21.3441 9.93542L21.5834 10.6837H22.3566L21.731 11.1465L21.97 11.8948L21.3441 11.4324L20.7186 11.8948L20.9576 11.1465L20.332 10.6837H21.1055L21.3441 9.93542Z" fill="white"/>
<path d="M21.3441 13.6113L21.5834 14.3597H22.3566L21.731 14.8224L21.97 15.5707L21.3441 15.1083L20.7186 15.5707L20.9576 14.8224L20.332 14.3597H21.1055L21.3441 13.6113Z" fill="white"/>
<path d="M2.17209 4.37823L2.41104 5.12656H3.18451L2.55866 5.58896L2.79794 6.33761L2.17209 5.87488L1.54656 6.33761L1.78552 5.58896L1.15967 5.12656H1.93314L2.17209 4.37823Z" fill="white"/>
<path d="M2.17209 8.05414L2.41104 8.80246H3.18451L2.55866 9.26519L2.79794 10.0135L2.17209 9.55079L1.54656 10.0135L1.78552 9.26519L1.15967 8.80246H1.93314L2.17209 8.05414Z" fill="white"/>
<path d="M2.17209 11.73L2.41104 12.4783H3.18451L2.55866 12.941L2.79794 13.6894L2.17209 13.227L1.54656 13.6894L1.78552 12.941L1.15967 12.4783H1.93314L2.17209 11.73Z" fill="white"/>
<path d="M2.17209 15.4059L2.41104 16.1542H3.18451L2.55866 16.6169L2.79794 17.3653L2.17209 16.9029L1.54656 17.3653L1.78552 16.6169L1.15967 16.1542H1.93314L2.17209 15.4059Z" fill="white"/>
<path d="M6.38205 0.702026L6.62101 1.45067H7.39447L6.76895 1.91307L7.0079 2.66172L6.38205 2.199L5.75652 2.66172L5.99548 1.91307L5.36963 1.45067H6.1431L6.38205 0.702026Z" fill="white"/>
<path d="M6.38205 4.37823L6.62101 5.12656H7.39447L6.76895 5.58896L7.0079 6.33761L6.38205 5.87488L5.75652 6.33761L5.99548 5.58896L5.36963 5.12656H6.1431L6.38205 4.37823Z" fill="white"/>
<path d="M6.38205 8.05414L6.62101 8.80246H7.39447L6.76895 9.26519L7.0079 10.0135L6.38205 9.55079L5.75652 10.0135L5.99548 9.26519L5.36963 8.80246H6.1431L6.38205 8.05414Z" fill="white"/>
<path d="M6.38205 11.73L6.62101 12.4783H7.39447L6.76895 12.941L7.0079 13.6894L6.38205 13.227L5.75652 13.6894L5.99548 12.941L5.36963 12.4783H6.1431L6.38205 11.73Z" fill="white"/>
<path d="M6.38205 15.4059L6.62101 16.1542H7.39447L6.76895 16.6169L7.0079 17.3653L6.38205 16.9029L5.75652 17.3653L5.99548 16.6169L5.36963 16.1542H6.1431L6.38205 15.4059Z" fill="white"/>
<path d="M10.7058 0.702026L10.9447 1.45067H11.7182L11.0927 1.91307L11.3316 2.66172L10.7058 2.199L10.0803 2.66172L10.3192 1.91307L9.69336 1.45067H10.4668L10.7058 0.702026Z" fill="white"/>
<path d="M10.7058 4.37823L10.9447 5.12656H11.7182L11.0927 5.58896L11.3316 6.33761L10.7058 5.87488L10.0803 6.33761L10.3192 5.58896L9.69336 5.12656H10.4668L10.7058 4.37823Z" fill="white"/>
<path d="M10.7058 8.05414L10.9447 8.80246H11.7182L11.0927 9.26519L11.3316 10.0135L10.7058 9.55079L10.0803 10.0135L10.3192 9.26519L9.69336 8.80246H10.4668L10.7058 8.05414Z" fill="white"/>
<path d="M10.7058 11.73L10.9447 12.4783H11.7182L11.0927 12.941L11.3316 13.6894L10.7058 13.227L10.0803 13.6894L10.3192 12.941L9.69336 12.4783H10.4668L10.7058 11.73Z" fill="white"/>
<path d="M10.7058 15.4059L10.9447 16.1542H11.7182L11.0927 16.6169L11.3316 17.3653L10.7058 16.9029L10.0803 17.3653L10.3192 16.6169L9.69336 16.1542H10.4668L10.7058 15.4059Z" fill="white"/>
<path d="M14.9441 0.702026L15.183 1.45067H15.9565L15.3306 1.91307L15.5696 2.66172L14.9441 2.199L14.3182 2.66172L14.5572 1.91307L13.9316 1.45067H14.7051L14.9441 0.702026Z" fill="white"/>
<path d="M14.9441 4.37823L15.183 5.12656H15.9565L15.3306 5.58896L15.5696 6.33761L14.9441 5.87488L14.3182 6.33761L14.5572 5.58896L13.9316 5.12656H14.7051L14.9441 4.37823Z" fill="white"/>
<path d="M14.9441 8.05414L15.183 8.80246H15.9565L15.3306 9.26519L15.5696 10.0135L14.9441 9.55079L14.3182 10.0135L14.5572 9.26519L13.9316 8.80246H14.7051L14.9441 8.05414Z" fill="white"/>
<path d="M14.9441 11.73L15.183 12.4783H15.9565L15.3306 12.941L15.5696 13.6894L14.9441 13.227L14.3182 13.6894L14.5572 12.941L13.9316 12.4783H14.7051L14.9441 11.73Z" fill="white"/>
<path d="M14.9441 15.4059L15.183 16.1542H15.9565L15.3306 16.6169L15.5696 17.3653L14.9441 16.9029L14.3182 17.3653L14.5572 16.6169L13.9316 16.1542H14.7051L14.9441 15.4059Z" fill="white"/>
<path d="M19.1828 0.702026L19.4218 1.45067H20.1953L19.5694 1.91307L19.8084 2.66172L19.1828 2.199L18.557 2.66172L18.7959 1.91307L18.1704 1.45067H18.9436L19.1828 0.702026Z" fill="white"/>
<path d="M19.1828 4.37823L19.4218 5.12656H20.1953L19.5694 5.58896L19.8084 6.33761L19.1828 5.87488L18.557 6.33761L18.7959 5.58896L18.1704 5.12656H18.9436L19.1828 4.37823Z" fill="white"/>
<path d="M19.1828 8.05414L19.4218 8.80246H20.1953L19.5694 9.26519L19.8084 10.0135L19.1828 9.55079L18.557 10.0135L18.7959 9.26519L18.1704 8.80246H18.9436L19.1828 8.05414Z" fill="white"/>
<path d="M19.1828 11.73L19.4218 12.4783H20.1953L19.5694 12.941L19.8084 13.6894L19.1828 13.227L18.557 13.6894L18.7959 12.941L18.1704 12.4783H18.9436L19.1828 11.73Z" fill="white"/>
<path d="M19.1828 15.4059L19.4218 16.1542H20.1953L19.5694 16.6169L19.8084 17.3653L19.1828 16.9029L18.557 17.3653L18.7959 16.6169L18.1704 16.1542H18.9436L19.1828 15.4059Z" fill="white"/>
<path d="M23.5061 0.702026L23.7454 1.45067H24.5188L23.893 1.91307L24.1319 2.66172L23.5061 2.199L22.8805 2.66172L23.1195 1.91307L22.4937 1.45067H23.2671L23.5061 0.702026Z" fill="white"/>
<path d="M23.5061 4.37823L23.7454 5.12656H24.5188L23.893 5.58896L24.1319 6.33761L23.5061 5.87488L22.8805 6.33761L23.1195 5.58896L22.4937 5.12656H23.2671L23.5061 4.37823Z" fill="white"/>
<path d="M23.5061 8.05414L23.7454 8.80246H24.5188L23.893 9.26519L24.1319 10.0135L23.5061 9.55079L22.8805 10.0135L23.1195 9.26519L22.4937 8.80246H23.2671L23.5061 8.05414Z" fill="white"/>
<path d="M23.5061 11.73L23.7454 12.4783H24.5188L23.893 12.941L24.1319 13.6894L23.5061 13.227L22.8805 13.6894L23.1195 12.941L22.4937 12.4783H23.2671L23.5061 11.73Z" fill="white"/>
<path d="M23.5061 15.4059L23.7454 16.1542H24.5188L23.893 16.6169L24.1319 17.3653L23.5061 16.9029L22.8805 17.3653L23.1195 16.6169L22.4937 16.1542H23.2671L23.5061 15.4059Z" fill="white"/>
</g>
<defs>
<clipPath id="clip0_59_54">
<rect width="64" height="34" rx="5" fill="white"/>
</clipPath>
</defs>
</svg>
